<svg xmlns="http://www.w3.org/2000/svg" viewBox="0 0 360 360">
  <defs>
    <style>.a{fill:#e9e3e3;}.b{fill:#ff1f0a;}</style>
  </defs>
  <rect class="a" width="360" height="360" />
  <path class="b"
    d="M39,291.7s13.6-38.8,53.1-65.5c8.6-5.8,17.1,1.8,23.4,7.5a91.78,91.78,0,0,0,20.2,13.6,93.72,93.72,0,0,0,19.7,7.4c2.1.5,24.6,4.3,24.6,2.9V360C180,359.9,98.6,365,39,291.7Z" />
  <path class="b"
    d="M321,291.7s-13.6-38.8-53.1-65.5c-8.6-5.8-17.1,1.8-23.4,7.5a91.78,91.78,0,0,1-20.2,13.6,93.72,93.72,0,0,1-19.7,7.4c-2.1.5-24.6,4.3-24.6,2.9V360C180,359.9,261.4,365,321,291.7Z" />
  <circle class="a" cx="180" cy="160.6" r="97.3" />
  <circle class="b" cx="180" cy="144.8" r="86.5" />
  <path class="b" d="M92.1,226.2S54.9,250,39,291.7,24.12,360,24.12,360H180Z" />
  <path class="b" d="M267.9,226.2S305.1,250,321,291.7,335.88,360,335.88,360H180Z" />
</svg>