<?xml version="1.0" encoding="utf-8"?>
<!-- Generator: Adobe Illustrator 26.1.0, SVG Export Plug-In . SVG Version: 6.00 Build 0)  -->
<svg version="1.1" id="Layer_1" xmlns="http://www.w3.org/2000/svg" xmlns:xlink="http://www.w3.org/1999/xlink" x="0px" y="0px"
	 viewBox="0 0 360 360" style="enable-background:new 0 0 360 360;" xml:space="preserve">
<style type="text/css">
	.st0{display:none;fill:none;}
	.st1{fill:#A1A1AA;}
	.st2{display:none;}
	.st3{display:none;fill:#FFFFFF;}
	.st4{fill:none;}
	.st5{fill:#FFFFFF;stroke:#000000;stroke-width:4;stroke-miterlimit:10;}
</style>
<rect class="st0" width="360" height="360"/>
<rect class="st1" width="360" height="360"/>
<circle class="st2" cx="180" cy="144.8" r="91.5"/>
<path class="st2" d="M30.8,287.8c0,0,14.5-44.5,56.5-75.1c9.2-6.7,18.2,2.1,24.9,8.6c6.5,6.2,13.7,11.5,21.5,15.6
	c6.7,3.7,13.7,6.5,21,8.5c2.2,0.6,26.2,4.9,26.2,3.3v117.5C180.9,366,94.3,371.9,30.8,287.8z"/>
<path class="st2" d="M330.9,287.8c0,0-14.5-44.5-56.5-75.1c-9.2-6.7-18.2,2.1-24.9,8.6c-6.5,6.2-13.7,11.5-21.5,15.6
	c-6.7,3.7-13.7,6.5-21,8.5c-2.2,0.6-26.2,4.9-26.2,3.3v117.5C180.9,366,267.5,371.9,330.9,287.8z"/>
<path class="st2" d="M87.3,212.6c0,0-39.6,27.3-56.5,75.1S15,366.1,15,366.1h165.9L87.3,212.6z"/>
<path class="st2" d="M274.4,212.6c0,0,39.6,27.3,56.5,75.1s15.9,78.3,15.9,78.3H180.9L274.4,212.6z"/>
<rect x="177.7" y="249" class="st2" width="8.2" height="117.1"/>
<path class="st3" d="M39,291.7c0,0,13.6-38.8,53.1-65.5c8.6-5.8,17.1,1.8,23.4,7.5c6.1,5.4,12.9,10,20.2,13.6
	c6.3,3.2,12.9,5.7,19.7,7.4c2.1,0.5,24.6,4.3,24.6,2.9V360C180,359.9,98.6,365,39,291.7z"/>
<path class="st3" d="M321,291.7c0,0-13.6-38.8-53.1-65.5c-8.6-5.8-17.1,1.8-23.4,7.5c-6.1,5.4-12.9,10-20.2,13.6
	c-6.3,3.2-12.9,5.7-19.7,7.4c-2.1,0.5-24.6,4.3-24.6,2.9V360C180,359.9,261.4,365,321,291.7z"/>
<path class="st3" d="M92.1,226.2c0,0-37.2,23.8-53.1,65.5S24.1,360,24.1,360H180L92.1,226.2z"/>
<path class="st3" d="M267.9,226.2c0,0,37.2,23.8,53.1,65.5s14.9,68.3,14.9,68.3H180L267.9,226.2z"/>
<rect x="177" y="257.9" class="st3" width="7.7" height="102.1"/>
<circle class="st4" cx="180" cy="160.6" r="97.3"/>
<circle class="st5" cx="180" cy="144.8" r="86.5"/>
<path class="st5" d="M23.4,362.1c0,0-0.1-83,58.6-126.9c0,0,14.9-12.3,32.2,0c0,0,24.2,23.9,64.1,24.8c39.9,0.8,69-27.3,69-27.3
	c23.8-14.9,76.2,21.2,87.9,129.4H23.4z"/>
</svg>
