<svg xmlns="http://www.w3.org/2000/svg" viewBox="0 0 30.43 12">
  <defs>
    <style>.a{isolation:isolate;}.b{fill:#ff1f0a;}</style>
  </defs>
  <g class="a">
    <g class="a">
      <path class="b"
        d="M5.16,11.08A3.67,3.67,0,0,1,2.5,12a5.42,5.42,0,0,1-1.84-.29V9.81H1.94A1.3,1.3,0,0,0,3.36,8.64L0,.19H3.42L5,5.81h.11L6.64.19H9.78l-3,8.19A7.18,7.18,0,0,1,5.16,11.08Z" />
    </g>
    <g class="a">
      <path class="b"
        d="M17.79.65A2.2,2.2,0,0,1,19,2.75v3.3a.8.8,0,0,0,.13.45.48.48,0,0,0,.39.17h.57V8.51a1.34,1.34,0,0,1-.25.11c-.13,0-.32.09-.56.14a4.36,4.36,0,0,1-.85.07,3.58,3.58,0,0,1-1.53-.28,1.55,1.55,0,0,1-.82-.77,5.17,5.17,0,0,1-1.36.76A4.78,4.78,0,0,1,13,8.83c-2,0-3-.79-3-2.37a2.53,2.53,0,0,1,.66-1.88,3.7,3.7,0,0,1,1.92-.88,17.88,17.88,0,0,1,3.26-.24V3a.87.87,0,0,0-.34-.75A1.47,1.47,0,0,0,14.59,2a1.91,1.91,0,0,0-.86.18.58.58,0,0,0-.36.56v.06H10.24a1.18,1.18,0,0,1,0-.22A2.16,2.16,0,0,1,11.36.7,6.32,6.32,0,0,1,14.64,0,6.7,6.7,0,0,1,17.79.65Zm-4,4.61c-.43.19-.65.46-.65.79,0,.53.37.8,1.09.8a1.82,1.82,0,0,0,1.1-.34,1,1,0,0,0,.47-.83V5A5,5,0,0,0,13.81,5.26Z" />
    </g>
    <g class="a">
      <path class="b"
        d="M29.5,1.12a5.08,5.08,0,0,1,.93,3.31,5,5,0,0,1-.93,3.29,3.25,3.25,0,0,1-2.64,1.11,3.1,3.1,0,0,1-2.37-1v3.92H21.31V.19H23.9l.27,1.2A3,3,0,0,1,26.86,0,3.23,3.23,0,0,1,29.5,1.12ZM24.81,2.85a2.21,2.21,0,0,0-.35,1.29v.53A2.28,2.28,0,0,0,24.81,6a1.22,1.22,0,0,0,1.06.5c.91,0,1.37-.55,1.37-1.65V4c0-1.08-.46-1.63-1.37-1.63A1.22,1.22,0,0,0,24.81,2.85Z" />
    </g>
  </g>
</svg>